<svg xmlns="http://www.w3.org/2000/svg" width="211" height="74" fill="none"><path fill="#000" d="m1.28 59 16.384-45.44h8.768L42.816 59h-7.36l-4.16-11.84h-18.56L8.64 59H1.28Zm13.632-18.112h14.272l-7.168-20.736-7.104 20.736ZM50.172 59 37.755 24.952h7.231l9.28 27.136 9.28-27.136h7.297L58.364 59h-8.192Zm35.214.768c-3.328 0-6.208-.725-8.64-2.176-2.39-1.45-4.245-3.52-5.568-6.208-1.28-2.688-1.92-5.824-1.92-9.408 0-3.584.64-6.699 1.92-9.344 1.323-2.688 3.179-4.757 5.568-6.208 2.39-1.493 5.205-2.24 8.448-2.24 3.072 0 5.781.725 8.128 2.176 2.347 1.408 4.16 3.456 5.44 6.144 1.323 2.688 1.984 5.93 1.984 9.728v1.728H76.298c.17 3.328 1.045 5.824 2.624 7.488 1.621 1.664 3.797 2.496 6.528 2.496 2.005 0 3.67-.47 4.992-1.408 1.323-.939 2.24-2.197 2.752-3.776l7.04.448c-.896 3.157-2.667 5.717-5.312 7.68-2.603 1.92-5.781 2.88-9.536 2.88ZM76.298 38.84h17.28c-.213-3.03-1.088-5.27-2.624-6.72-1.493-1.45-3.413-2.176-5.76-2.176-2.432 0-4.437.768-6.016 2.304-1.536 1.493-2.496 3.69-2.88 6.592ZM103.78 59V24.952h6.208l.256 9.024-.576-.192c.469-3.072 1.408-5.312 2.816-6.72 1.451-1.408 3.392-2.112 5.824-2.112h3.264v6.08h-3.264c-1.707 0-3.136.277-4.288.832a5.649 5.649 0 0 0-2.624 2.56c-.555 1.152-.832 2.645-.832 4.48V59h-6.784Zm19.035 0V24.952h6.208l.256 9.024-.576-.192c.469-3.072 1.408-5.312 2.816-6.72 1.451-1.408 3.392-2.112 5.824-2.112h3.264v6.08h-3.264c-1.707 0-3.136.277-4.288.832a5.649 5.649 0 0 0-2.624 2.56c-.555 1.152-.832 2.645-.832 4.48V59h-6.784Zm28.446.768c-3.541 0-6.379-.81-8.512-2.432-2.091-1.621-3.136-3.904-3.136-6.848s.875-5.227 2.624-6.848c1.792-1.664 4.544-2.859 8.256-3.584l11.712-2.24c0-2.645-.619-4.608-1.856-5.888-1.237-1.323-3.072-1.984-5.504-1.984-2.176 0-3.883.49-5.12 1.472-1.237.939-2.091 2.347-2.56 4.224l-6.976-.448c.64-3.413 2.219-6.101 4.736-8.064 2.56-1.963 5.867-2.944 9.92-2.944 4.608 0 8.107 1.237 10.496 3.712 2.432 2.432 3.648 5.867 3.648 10.304v13.248c0 .81.128 1.387.384 1.728.299.299.768.448 1.408.448h1.216V59c-.213.043-.555.085-1.024.128s-.96.064-1.472.064c-1.451 0-2.709-.235-3.776-.704-1.024-.47-1.792-1.237-2.304-2.304-.512-1.11-.768-2.581-.768-4.416l.704.32c-.341 1.493-1.088 2.816-2.24 3.968-1.109 1.152-2.539 2.07-4.288 2.752-1.707.64-3.563.96-5.568.96Zm1.088-5.376c2.048 0 3.797-.384 5.248-1.152a8.765 8.765 0 0 0 3.392-3.328c.811-1.408 1.216-3.008 1.216-4.8v-2.176l-9.984 1.92c-2.048.384-3.499 1.003-4.352 1.856-.811.81-1.216 1.856-1.216 3.136 0 1.45.491 2.581 1.472 3.392 1.024.768 2.432 1.152 4.224 1.152Zm37.404-6.464c-2.432 0-4.736-.448-6.912-1.344a18.318 18.318 0 0 1-5.632-3.84 18.899 18.899 0 0 1-3.776-5.632c-.896-2.133-1.344-4.437-1.344-6.912 0-2.475.448-4.779 1.344-6.912.938-2.133 2.197-3.99 3.776-5.568a17.423 17.423 0 0 1 5.632-3.776c2.176-.939 4.48-1.408 6.912-1.408 2.474 0 4.757.47 6.848 1.408a17.445 17.445 0 0 1 5.632 3.776 16.725 16.725 0 0 1 3.776 5.568c.938 2.133 1.408 4.437 1.408 6.912 0 2.475-.47 4.779-1.408 6.912a17.439 17.439 0 0 1-3.776 5.632 18.341 18.341 0 0 1-5.632 3.84c-2.091.896-4.374 1.344-6.848 1.344Zm0-3.776c2.688 0 5.056-.64 7.104-1.92 2.09-1.28 3.712-2.965 4.864-5.056 1.194-2.133 1.792-4.459 1.792-6.976 0-2.517-.598-4.821-1.792-6.912-1.152-2.09-2.774-3.755-4.864-4.992-2.048-1.28-4.416-1.92-7.104-1.92-2.688 0-5.078.64-7.168 1.92a13.64 13.64 0 0 0-4.864 4.992c-1.195 2.09-1.792 4.395-1.792 6.912 0 2.517.597 4.843 1.792 6.976a14.155 14.155 0 0 0 4.864 5.056c2.09 1.28 4.48 1.92 7.168 1.92Zm-7.168-4.352V20.664h6.784c2.474 0 4.416.533 5.824 1.6 1.408 1.067 2.112 2.517 2.112 4.352 0 1.28-.363 2.41-1.088 3.392-.683.939-1.664 1.579-2.944 1.92l4.672 7.872h-4.48l-4.16-7.296h-2.624V39.8h-4.096Zm4.096-10.56h2.88c1.152 0 2.048-.235 2.688-.704.682-.47 1.024-1.13 1.024-1.984 0-.81-.342-1.43-1.024-1.856-.64-.427-1.536-.64-2.688-.64h-2.88v5.184Z"/></svg>